<svg xmlns="http://www.w3.org/2000/svg" width="381" height="62" viewBox="0 0 381 62" fill="none"><path fill="url(#a)" d="M0 61.558V31.234h4.095v30.324H0Zm14.239-2.338H26.46c1.576 0 2.836-.126 3.78-.316 1.009-.252 1.828-.505 2.395-.884a5.415 5.415 0 0 0 1.449-1.074c.315-.38.63-.695.945-1.01l.882.63c-.252.443-.567.948-.945 1.517s-.882 1.137-1.512 1.706a9.883 9.883 0 0 1-2.268 1.39c-.882.379-1.89.568-3.088.568h-2.52c-1.07 0-2.268 0-3.59-.063-1.324 0-2.647-.063-4.033-.063-1.386 0-2.646-.063-3.843-.063s-2.205-.063-3.024-.063H9.514V59.41l17.83-25.902H24.696c-.945 0-1.953-.063-3.024-.063-1.07 0-2.205-.063-3.339-.063s-2.205-.063-3.213-.063a41.614 41.614 0 0 0-2.71-.064c-.818 0-1.448-.063-1.89-.063l.253-1.958h21.358v1.895L14.239 59.22Zm48.953-8.339c0 1.516-.252 2.97-.819 4.296-.504 1.327-1.323 2.527-2.394 3.538a11.046 11.046 0 0 1-3.906 2.4c-1.575.569-3.34.885-5.418.885-1.701 0-3.214-.19-4.6-.569-1.386-.379-2.52-.947-3.528-1.832-.945-.821-1.7-1.958-2.268-3.348-.504-1.39-.756-3.032-.756-4.99V31.233h3.97v20.658c0 1.516.188 2.78.503 3.79a5.705 5.705 0 0 0 1.45 2.401c.63.569 1.386.948 2.33 1.2.946.253 2.017.38 3.214.38 1.512 0 2.835-.127 3.969-.443s2.079-.821 2.646-1.453c.504-.568.945-1.39 1.197-2.4.252-1.011.378-2.211.378-3.538V31.297h3.97v19.584h.062Zm37.487 10.677-2.457-23.122-10.647 23.122h-1.89l-11.53-23.122-2.016 23.122h-2.71l3.088-30.514h2.457L87.26 55.935l11.53-24.89h2.519l3.34 30.513h-3.97Zm10.333 0V31.234h4.095v30.324h-4.095Z"/><path fill="#fff" d="M131.742 61.557V31.234h4.095v30.323h-4.095Zm17.515 0V33.572l-9.325-.126.315-2.211h22.429l-.315 2.085-9.009.252v27.986h-4.095Zm37.865.38c-2.205 0-4.033-.38-5.545-1.137a10.058 10.058 0 0 1-3.717-3.16c-.945-1.39-1.638-3.032-2.079-4.927-.441-1.958-.63-4.106-.63-6.444 0-2.906.441-5.306 1.26-7.265.819-1.958 1.89-3.537 3.213-4.738 1.323-1.2 2.835-2.084 4.473-2.59 1.639-.505 3.34-.821 4.978-.821.63 0 1.26 0 2.016.063s1.449.063 2.205.126c.693.064 1.386.127 1.953.19.63.063 1.134.126 1.449.19l-1.071 3.6c-.378-.126-.945-.252-1.638-.442s-1.449-.316-2.331-.442c-.819-.127-1.575-.253-2.394-.316-.819-.126-1.449-.126-1.953-.126-1.197 0-2.205.126-3.025.316a6.403 6.403 0 0 0-2.394 1.137c-.882.695-1.512 2.021-1.89 3.916-.378 1.896-.504 4.296-.504 7.14 0 4.358.63 7.706 1.89 9.98 1.26 2.275 3.34 3.349 6.175 3.349.819 0 1.575 0 2.457-.063.819-.063 1.701-.127 2.52-.253s1.701-.253 2.457-.442c.819-.19 1.575-.38 2.268-.632v1.58c-.756.379-1.512.694-2.394.947-.819.253-1.701.505-2.583.695-.882.19-1.764.316-2.646.442-.882.127-1.701.127-2.52.127Zm43.535-15.668c0 2.401-.315 4.612-.945 6.507-.63 1.959-1.512 3.601-2.772 4.928-1.197 1.39-2.772 2.4-4.599 3.159-1.828.758-3.97 1.074-6.427 1.074-2.457 0-4.599-.38-6.426-1.137-1.827-.759-3.276-1.833-4.41-3.16a13.051 13.051 0 0 1-2.521-4.927 25.745 25.745 0 0 1-.819-6.444c0-2.337.252-4.485.819-6.38.567-1.896 1.387-3.475 2.584-4.802 1.134-1.326 2.646-2.4 4.41-3.095 1.764-.695 3.906-1.074 6.363-1.074 2.457 0 4.599.379 6.427 1.074 1.827.695 3.339 1.769 4.599 3.095 1.197 1.327 2.142 2.906 2.772 4.802.63 1.895.945 3.98.945 6.38Zm-4.41 0c0-1.958-.189-3.727-.567-5.306-.378-1.58-1.008-2.97-1.89-4.107-.819-1.137-1.891-2.021-3.214-2.653-1.26-.632-2.835-.948-4.599-.948-1.575 0-3.024.19-4.347.506-1.323.316-2.394.821-3.213 1.516-.441.38-.819.948-1.071 1.642-.315.759-.504 1.58-.693 2.59a22.653 22.653 0 0 0-.378 3.223 64.193 64.193 0 0 0-.126 3.6c0 1.896.189 3.665.504 5.307.315 1.643.882 3.032 1.638 4.233.756 1.2 1.764 2.085 2.961 2.78 1.26.694 2.835 1.01 4.725 1.01 1.764 0 3.339-.19 4.536-.505a8.126 8.126 0 0 0 3.34-1.769c.441-.379.819-.884 1.071-1.642.315-.759.567-1.643.756-2.654.189-1.01.315-2.085.441-3.285.126-1.2.126-2.337.126-3.538Zm41.015 15.288-2.457-23.121-10.648 23.121h-1.89l-11.53-23.121-2.016 23.121h-2.709l3.087-30.513h2.458l12.285 24.891 11.53-24.89h2.52l3.339 30.512h-3.969Zm16.066-13.708.882-.127c1.071-.19 2.079-.379 3.024-.695.945-.315 1.827-.758 2.52-1.326.693-.569 1.26-1.327 1.701-2.275.441-.947.63-2.21.63-3.79 0-1.137-.189-2.148-.504-2.97-.378-.82-.819-1.515-1.449-2.02a6.268 6.268 0 0 0-2.331-1.201c-.882-.253-1.89-.38-2.961-.38-.567 0-1.071 0-1.449.064-.441 0-.945.063-1.512.126v28.24h-4.096V31.296c1.261-.126 2.584-.19 4.096-.253s2.961-.063 4.41-.063c1.764 0 3.276.19 4.599.569 1.323.379 2.394.947 3.213 1.705.819.695 1.449 1.58 1.89 2.654.441 1.01.63 2.21.63 3.474 0 1.39-.252 2.654-.756 3.79a8.382 8.382 0 0 1-2.331 3.096c-1.008.885-2.331 1.58-3.906 2.085-1.575.505-3.465.758-5.67.758h-.252l-.378-1.263Zm35.597 13.709-3.781-11.12-11.655.127-4.095 10.93h-3.025l11.971-30.072 3.528-1.01 11.215 31.081h-4.158v.063Zm-4.411-13.078-5.04-14.15-5.229 14.15h10.269Zm36.542 13.204-21.358-23.627h-.063c.063 2.21.063 4.295.126 6.128V61.62h-2.709V31.107h1.827l21.358 23.565c-.063-2.085-.063-3.98-.063-5.75V31.36h2.709v30.45h-1.827v-.126Zm20.287-.127h-3.969V49.934l-10.395-18.7h4.599l8.505 16.11 7.939-16.11h2.835l-9.514 18.7v11.623Z"/><path fill="url(#b)" d="M237.143 17.399c.882-.948 2.899-2.211 3.718-2.085.819.127 2.646.063 6.489 5.623 3.087 4.422 5.922 10.802 6.993 12.319.819-3.601.126-11.75-4.41-18.574-3.024-4.232-4.599-5.243-5.04-5.18.126-.253.189-1.01.567-2.337.378-1.327 1.197-1.643 1.197-1.77-.441-.189-1.827-.63-2.457-.568-.63.127-2.205.822-2.961 1.2-.504-.884-2.584-2.716-6.427-3.98-8.631-2.905-14.553-2.21-17.452-1.01 2.205.884 5.671 2.021 8.632 3.222 4.221 1.642 6.615 2.842 7.497 3.6.945.822 2.205 2.212 2.205 3.791 0 1.516-.882 2.717-1.26 3.222-.378.442-5.544 5.622-5.544 5.622l4.662-2.021-1.449 5.37a372.989 372.989 0 0 1 5.04-6.444Z"/><defs><radialGradient id="a" cx="0" cy="0" r="1" gradientTransform="rotate(-90.264 119.489 -68.681) scale(72.773 286.087)" gradientUnits="userSpaceOnUse"><stop stop-color="#0C9"/><stop offset="1" stop-color="#009B74"/></radialGradient><radialGradient id="b" cx="0" cy="0" r="1" gradientTransform="rotate(-90.371 126.274 -108.947) scale(24.8739 27.5355)" gradientUnits="userSpaceOnUse"><stop stop-color="#0C9"/><stop offset="1" stop-color="#009B74"/></radialGradient></defs></svg>
